<?xml version="1.0" standalone="no"?>
<!DOCTYPE svg PUBLIC "-//W3C//DTD SVG 20010904//EN"
 "http://www.w3.org/TR/2001/REC-SVG-20010904/DTD/svg10.dtd">
<svg version="1.0" xmlns="http://www.w3.org/2000/svg"
 width="660.000000pt" height="660.000000pt" viewBox="0 0 660.000000 660.000000"
 preserveAspectRatio="xMidYMid meet">
<metadata>
Created by potrace 1.16, written by Peter Selinger 2001-2019
</metadata>
<g transform="translate(0.000000,660.000000) scale(0.100000,-0.100000)"
fill="#000000" stroke="none">
<path d="M0 3300 l0 -3300 3300 0 3300 0 0 3300 0 3300 -3300 0 -3300 0 0
-3300z m2120 1465 c268 -47 514 -166 690 -332 217 -204 338 -467 357 -775 l6
-108 -484 0 -484 0 -13 78 c-24 156 -117 293 -240 354 -41 20 -62 23 -157 23
-104 0 -114 -2 -176 -32 -199 -98 -289 -337 -276 -730 9 -269 56 -412 177
-534 84 -85 147 -111 270 -111 113 -1 180 25 260 99 83 77 150 224 150 330 l0
33 485 0 485 0 0 -62 c0 -82 -23 -222 -54 -329 -100 -345 -344 -613 -687 -754
l-84 -35 -567 0 -568 0 -62 24 c-313 117 -575 355 -718 651 -106 219 -160 470
-160 742 1 665 316 1169 866 1387 101 40 220 70 357 91 127 19 497 14 627 -10z
m3170 -4 c313 -59 539 -167 710 -341 152 -155 232 -332 253 -562 l5 -48 -484
0 c-441 0 -484 1 -484 16 0 82 -94 195 -192 232 -142 53 -295 50 -415 -8 -74
-37 -103 -77 -103 -142 0 -83 61 -143 179 -178 36 -11 219 -47 406 -80 187
-33 384 -72 437 -85 257 -66 432 -157 554 -288 71 -75 105 -133 142 -237 24
-68 26 -89 27 -225 0 -155 -8 -201 -54 -326 -87 -230 -306 -433 -608 -562
l-98 -42 -634 -3 c-629 -3 -635 -2 -700 19 -361 120 -635 387 -721 702 -11 40
-23 98 -28 130 l-9 57 518 0 519 0 6 -27 c29 -118 132 -211 269 -241 243 -53
467 17 482 150 7 63 -15 108 -73 146 -69 47 -139 64 -519 132 -374 66 -485 93
-617 150 -218 94 -360 220 -442 393 -110 235 -95 573 35 794 47 78 175 211
259 268 134 89 306 156 503 195 168 34 240 39 507 35 209 -2 276 -6 370 -24z
m-60 -2941 c-57 -16 -335 -24 -475 -14 l-130 9 115 5 c226 10 527 10 490 0z
m-3255 -10 c-78 -10 -335 -10 -405 0 -34 4 45 7 205 7 161 0 237 -3 200 -7z"/>
</g>
</svg>
